<svg xmlns="http://www.w3.org/2000/svg" xml:space="preserve" width="677" height="114"><defs><linearGradient id="a" x1=".834" x2=".086" y1="1.346" y2="-.316"><stop offset=".04" stop-color="#11CED0"/><stop offset=".43" stop-color="#4053C1"/><stop offset=".772" stop-color="#7D33D6"/><stop offset="1" stop-color="#CF61DC"/></linearGradient></defs><path fill="url(#a)" d="M426.526 17.672c29 0 49.3 14 49.3 47s-20.3 47-49.3 47h-38.9v-94zm-6 74.9c17.3 0 27.8-6.3 27.8-27.9s-10.5-27.9-27.8-27.9h-9.8v55.8zm90.4-.6-6.2 19.7h-26.4l33.4-94.1h33.7l33.4 94.1h-26.7l-6.4-19.7zm17.6-53.8h-.5l-11.4 36.1h23.6zm148.7 26.5c0 31.4-20.2 49.1-47.9 49.1s-47.9-17.7-47.9-49.1 20.2-49.1 47.9-49.1 47.9 17.7 47.9 49.1m-23.4 0c0-21.7-10.4-29.3-22.4-29.3s-22.4 7.7-22.4 29.3c0 21.7 10.4 29.3 22.4 29.3s22.4-7.6 22.4-29.3" class="st0"/><text xml:space="preserve" x="16.163" y="48.929" fill="#ff5c5c" stroke="null" stroke-width="0" font-family="'Open Sans'" font-size="32" font-weight="bold" transform="translate(-39.959 -37.681)scale(2.57544)">TokenAgg</text></svg>