<svg xmlns="http://www.w3.org/2000/svg" width="1118" height="360"><defs><linearGradient id="b" x1=".25" x2=".844" y1=".234" y2=".77"><stop offset=".113" stop-color="#3976ec" stop-opacity=".992"/><stop offset=".836" stop-color="#e931aa" stop-opacity=".977"/></linearGradient><linearGradient id="a" x1=".834" x2=".086" y1="1.346" y2="-.316"><stop offset=".04" stop-color="#11CED0"/><stop offset=".43" stop-color="#4053C1"/><stop offset=".772" stop-color="#7D33D6"/><stop offset="1" stop-color="#CF61DC"/></linearGradient></defs><path fill="url(#a)" stroke="null" d="M798.127 143.679c37.03 0 62.95 17.876 62.95 60.014s-25.92 60.014-62.95 60.014h-49.671V143.679h49.67zm-7.662 95.639c22.09 0 35.498-8.045 35.498-35.625s-13.407-35.626-35.498-35.626h-12.513v71.25h12.513zm115.432-.766-7.917 25.155h-33.71l42.648-120.156h43.031l42.649 120.156h-34.093l-8.173-25.155zm22.473-68.697h-.639l-14.556 46.096h30.134zm189.874 33.838c0 40.094-25.793 62.695-61.163 62.695s-61.164-22.601-61.164-62.695 25.794-62.696 61.164-62.696 61.163 22.601 61.163 62.696zm-29.88 0c0-27.709-13.28-37.413-28.602-37.413s-28.602 9.832-28.602 37.413c0 27.708 13.28 37.412 28.602 37.412s28.602-9.704 28.602-37.412z" class="st0"/><text xml:space="preserve" x="121.917" y="98.44" fill="#ff5c5c" stroke="null" stroke-width="0" font-family="'Open Sans'" font-size="32" font-weight="bold" transform="translate(-142.749 -86.167)scale(3.28856)">TokenAgg</text><path fill="#9e1cb2" stroke="null" d="m37.099 277.266.086 11.718q.08 8.412.068 16.825 0 1.744-.372 2.49c-.942 1.91-4.212 1.91-5.085-.023q-.338-.757-.355-2.726-.11-12.876.046-25.92 1.05.276 1.572-.166.172-.15.384-.23l2.376-.906q.138-.052.23.063.045.057.097.115.092.097.195.011.585-.493.758-1.25z"/><path fill="#3dcefa" stroke="null" d="M131.425 276.357q-.333 6.008.04 10.713.35 4.43 3.615 7.448c1.205 1.114 2.984 1.963 4.487 2.83q.924.527-.12.728c-3.49.671-7.73 4.074-7.908 8.091l-.143 42.601-.086 8.269q-1.664 3.908-4.51 1.71-1.005-1.894-.97-3.391.115-5.75.023-11.506.017-17.553.19-35.13.033-3.551-.735-5.324-1.337-3.088-4.51-4.758c-.856-.447-1.78-.504-2.698-.636q-.843-.115-.109-.557c1.848-1.096 3.977-2.278 5.354-3.782q2.313-2.502 2.657-5.652.396-3.546.15-11.155-.546-4.998 3.344-4.562 1.378.155 1.659 1.572.166.855.27 2.49zm-27.883-1.045q.046 15.586-.12 23.378c-.035 1.79.097 2.674 1.21 4.183 2.158 2.915 3.455 6.158.649 9.141-3.15 3.346-8.453 2.192-10.02-2.03-1.095-2.962.156-4.965 1.98-7.202q.666-.815.827-1.762.293-1.727.304-3.478.069-11.998-.126-23.176.097-1.722.2-2.634.144-1.211 1.326-1.527 2.83-.751 3.57 1.94.447 1.618.2 3.167z"/><path fill="#36b2f5" stroke="null" d="m80.865 266.091.045 51.622q-1.084-.115-1.916-.345-.494-.137-.798.052-.218.132-.419-.029-1.469-1.159-2.37.976l-.074-1.79q.097-25.128.143-50.245 0-1.584-.528-2.364.236-1.228 1.056-2.009.775-.728 1.968-.596 3.323.361 2.893 4.728z"/><path fill="#e931aa" stroke="null" d="M191.045 251.916q-.172 1.17-.223 3.489-.322 14.105-.018 19.137.465 7.609 7.311 10.616 1.853.809 4.596 1.71-2.92.906-5.084 1.853c-3.73 1.624-5.623 4.367-6.823 8.332q-1.096 3.633-1.417 5.928-.327 2.318-.74 4.723-.103.608-.264.011c-.276-.981-.235-2.054-.442-3.087-.884-4.321-1.796-8.613-4.327-12.062q-3.942-4.82-10.202-5.463-.046-.006-.035-.046.012-.08-.023-.172a.138.132-17.7 0 1 .098-.178q3.03-.752 5.836-2.112c4.7-2.278 6.954-7.07 7-12.2q.098-10.208-.08-18.04.694-3.013 4.837-2.44zM31.458 232.485l5.589 1.165.052 43.616q-.173.758-.758 1.251-.103.086-.195-.011-.052-.058-.098-.115-.091-.115-.23-.063l-2.375.907q-.212.08-.384.23-.522.44-1.572.165l.005-6.662zm183.677-2.357.011 51.983-.017 2.846q-1.36.15-2.668.316-.482.057-1.492-.098-.936-.143-1.555.344v-4.986l.08-45.367q.557-1.658 2.663-3.11 1.532-1.056 2.978-1.928z"/><circle cx="122.554" cy="150.012" r="122.554" fill="url(#b)" stroke="null"/><path fill="#fcfdfe" stroke="null" d="M206.378.485q-.195 1.021-.637 1.383-.218.177-.275.453l-.333 1.532q-.385-.769-1.756-.482-1.79.23-3.586.689-9.033 2.3-17.818 5.422-22.362 8.177-41.843 21.697-4.912 3.403-9.136 6.937c-7.758 6.496-15.183 13.795-21.145 22.012-9.067 12.05-16.377 26.414-20.498 40.926l-2.37 10.271q-1.635 7.873-2.283 15.729-1.584 16.934-.086 33.753-1.073-.408-1.848-1.114-.694-.637-.884-1.847-.815-5.354-.97-11.672-.447-18.672 2.657-36.295.82-4.642 1.636-7.345 1.698-5.595 3.27-11.172 1.028-3.644 5.337-12.785 9.526-19.35 24.784-34.677c6.73-6.673 13.502-11.952 21.277-17.346q2.485-1.722 5.693-3.679 2.84-1.733 5.784-3.546 11.718-6.869 24.79-11.758 12.76-4.831 26.222-7.04l1.871-.408q1.704-.367 2.146.362z"/><path fill="#36b2f5" stroke="null" d="M206.378.485q2.973 8.205 4.947 16.124-.219 2.628-2.267 3.185l-2.238-9.583-1.687-6.358.333-1.532q.057-.276.275-.453.442-.362.637-1.383z"/><path fill="#9e1cb2" stroke="null" d="m205.133 3.853 1.687 6.358q-.075.981-.086 1.98 0 .103.293 1.945.24 1.526-1.211 2.404-.241.15-.367.408-.546 1.153-1.366 1.905-.792.723-1.446 1.744-.654 1.022-1.716 1.911-.218.184-.298.46-.19.625-.718 1.015-.66.482-.918.82-.361.46-.826.913-.201.2-.057.447l.263.46q.155.27-.051.499l-2.955 3.288q-.092.103-.12.235-.024.092-.087.155-6.123 6.524-12.986 12.136-.367.305-.401.758-.018.275-.218.47l-12.7 12.292q-.062.063-.154.034-.07-.023-.104-.103-.017-.04-.051-.011-1.113.791-1.9 1.767-.797.987-1.704 1.6-1.021.69-1.968 1.573-8.493-4.154-18.064-2.932.321-.482 1.09-.608.241-.04.448-.172l2.169-1.4q1.2-.764 2.576-1.263.264-.098.465-.287.453-.425 1.056-.585.293-.08.522-.276l11.46-9.686q.189-.16.2-.407.012-.339.31-.517.178-.097.258-.275.092-.178.247-.299l1.486-1.124q.218-.167.482-.224.173-.04.305-.144 6.317-5.003 13.066-11.384a.166.166 0 0 1 .27.069q.028.086.12.086.086 0 .143-.058l2.714-2.634q.276-.264.408-.62.166-.436.602-.763.678-.51 2.738-2.324 1.187-1.044 2.806-2.238 2.633-1.94 5.067-4.131.143-.132.263.023.098.115.115.16a.327.327 0 0 0 .597.018q.425-.867 1.251-.827.178.006.304-.114 1.928-1.79 3.391-3.834.454-.63 1.096-1.113.207-.155.322-.384.499-1.045 1.434-1.75a.694.677-21.4 0 0 .27-.597q-.052-.85-.321-1.756-.19-.637-.207-1.314-.011-.677-.178-1.222-.195-.626.322-.224.068.057.155-.023.172-.167 0-.327-.534-.505-1.349-.465 1.371-.287 1.756.482z"/><path fill="#c722ad" stroke="null" d="M203.377 3.371q.815-.04 1.349.465.172.16 0 .327-.087.08-.155.023-.517-.402-.322.224.167.545.178 1.222.017.677.207 1.314.27.907.321 1.756a.694.677-21.4 0 1-.27.597q-.935.705-1.434 1.75-.115.23-.322.384-.642.482-1.096 1.113-1.463 2.043-3.39 3.834-.127.12-.305.114-.826-.04-1.251.827a.327.327 0 0 1-.597-.017q-.017-.046-.115-.161-.12-.155-.263-.023-2.434 2.192-5.067 4.131-1.619 1.194-2.806 2.238-2.06 1.814-2.738 2.324-.436.328-.602.764-.132.355-.408.62l-2.714 2.633q-.057.058-.143.058-.092 0-.12-.086a.166.166 0 0 0-.27-.07q-6.749 6.382-13.066 11.385-.132.104-.305.144-.264.057-.482.224l-1.486 1.124q-.155.12-.247.299-.08.178-.258.275-.298.178-.31.517-.011.246-.2.407l-11.46 9.686q-.23.195-.522.276-.603.16-1.056.585-.2.19-.465.287-1.377.5-2.576 1.262l-2.17 1.4q-.206.133-.447.173-.769.126-1.09.608c-11.609 1.085-22.144 7.879-28.53 17.576q-2.486 3.77-4.04 9.945l-3.553 2.467q-.143.098-.046.241.058.086.15.092.539.046.097.362-2.892 2.042-5.262 4.86-.275.327-.775.643-.47.292-.797.671-.172.2-.436.172-.339-.04-.413.31-.058.258-.27.425l-3.26 2.565q-.068.051-.16.051h-.15q-.229.006-.39.161-.59.574-1.216 1.113-.166.15-.379.224-.315.109-.338.419-.023.264-.236.425l-1.87 1.417q-.04.029-.04-.023.005-.092-.046-.16-.12-.167-.287-.047-.735.523-1.624.649-.299.04-.408.321-.195.545-.723.792-.28.132-.223.448.045-.264-.064-.488a.597.597 0 0 1-.051-.385q.287-1.497-.213-2.576c4.12-14.512 11.431-28.875 20.498-40.926q.533.58 1.29-.418.047-.058.052.017.006.08.04.16.04.086.127.046 1.503-.677 2.714-1.796.132-.126.321-.12h.167q.212.005.378-.12l2.565-1.906q.236-.178.523-.103l.54.143q.206.058.04.195l-.253.207q-.224.184.057.247l.562.137q.132.035.075.15-.063.137-.19.189-.275.109-.01.252.16.087.35.07.16-.018.16.143-.006.092.023.172.109.275.39.184l.981-.328q.396-.131.046.092-.224.138-.54.31-.034.017-.022.058.029.091.097.143.092.069.196.029.625-.236 1.216-.637 4.574-3.076 8.418-6.318 1.486-1.245 2.967-2.324 1.55-1.125 3.058-2.301c.253-.195.551-.247.855-.287q.31-.04.557-.224l2.037-1.486q.23-.167.51-.224.626-.115.948-.643.04-.063-.03-.103-.056-.034-.131-.057-.241-.075-.017-.19 1.463-.769 2.8-1.882 1.463-1.216 2.789-2.111 4.045-2.75 7.03-4.901 1.87-1.354 3.523-2.737 1.59-1.331 3.087-2.772 1.434-1.383 3.173-2.714.258-.2.557-.338.396-.184.476-.551a.534.505-15.7 0 1 .178-.299q1.147-.981 2.502-1.647c.694-.344 1.17-.757 1.727-1.233q.15-.127 1.325-.867 1.171-.74 1.04-2.255-.03-.333-.328-.172l-.258.143q-.017.012-.035-.005-.074-.052-.08-.161-.017-.144.115-.195 1.475-.614 2.106-2.1a.31.304-71 0 0-.201-.42q-.264-.074-.298-.344-.03-.223.223-.516c.27-.316.465-.591.867-.803q.826-.442 1.119-1.257.097-.27.373-.339.27-.069.55-.04.27.023.328-.247.109-.505.717-.355.298.069.442-.207.321-.62 1.05-.407a.252.252 0 0 0 .275-.11q.396-.665 1.125-.963a1.09 1.073-52.3 0 1 .545-.075q.39.052.614-.27.155-.23.436-.206.918.057 1.165-.649 8.786-3.121 17.818-5.422 1.796-.46 3.586-.689z"/><path fill="#e931aa" stroke="null" d="M181.973 9.482q-.247.706-1.165.649-.28-.023-.436.206-.224.322-.614.27a1.09 1.073-52.3 0 0-.545.075q-.729.298-1.125.964a.252.252 0 0 1-.275.109q-.729-.213-1.05.407-.144.275-.442.207-.608-.15-.717.355-.058.27-.327.247-.282-.029-.551.04-.276.07-.373.339-.293.815-1.12 1.257c-.4.212-.596.487-.866.803q-.252.293-.224.516.035.27.299.345a.31.304-71 0 1 .2.419q-.63 1.486-2.105 2.1-.132.051-.115.195.006.109.08.16.018.018.035.006l.258-.143q.298-.16.327.172.132 1.515-1.039 2.255-1.176.74-1.325.867c-.557.476-1.033.889-1.727 1.233q-1.355.666-2.502 1.647a.534.505-15.7 0 0-.178.299q-.08.367-.476.55-.299.138-.557.339-1.739 1.331-3.173 2.714-1.498 1.44-3.087 2.772-1.653 1.383-3.524 2.737-2.984 2.152-7.03 4.9-1.325.896-2.788 2.112-1.337 1.113-2.8 1.882-.224.115.017.19.075.023.132.057.069.04.029.103-.322.528-.947.643-.281.057-.511.224l-2.037 1.486q-.247.184-.557.224c-.304.04-.602.092-.855.287q-1.509 1.176-3.058 2.3-1.48 1.08-2.967 2.325-3.845 3.242-8.418 6.318-.591.401-1.216.637-.104.04-.196-.029-.068-.052-.097-.143-.012-.04.023-.058.315-.172.54-.31.35-.224-.047-.092l-.98.328q-.282.091-.391-.184-.029-.08-.023-.172 0-.16-.16-.144-.19.018-.35-.069-.265-.143.01-.252.127-.052.19-.19.057-.114-.075-.149l-.562-.137q-.281-.063-.057-.247l.252-.207q.167-.137-.04-.195l-.54-.143q-.286-.075-.522.103l-2.565 1.905q-.166.126-.378.12h-.167q-.19-.005-.321.121-1.21 1.12-2.714 1.796-.086.04-.126-.046-.035-.08-.04-.16-.006-.075-.052-.018-.758.999-1.291.42c5.962-8.218 13.387-15.517 21.145-22.013q4.224-3.534 9.136-6.937 19.481-13.52 41.843-21.697z"/><path fill="#761caf" stroke="null" d="m206.82 10.211 2.238 9.583 1.486 10.633q-1.991 3.104-3.827 5.646-1.75 2.428-3.684 4.723-.046.052-.029.126.011.08.017.167.006.19-.12.333l-1.848 2.06q-.16.177-.39.23-.115.028-.235.068-.201.057-.368.218-.958.912-1.71 1.968-.321.448-.717.746-.339.264-.516.568-.201.356-.614.345-.236-.006-.454.097-.258.132-.31.413-.149.85-.849 1.36-.097.07-.109.184-.006.103.052.19.12.16-.018.31-1.63 1.784-3.27 3.551-1.647 1.768-3.162 3.673-4.998 6.283-10.025 12.153-.052.064-.132.07-.092.016-.166.05-.063.03-.092.093-.597 1.285-2.232 1.681l-.551-.614q-4.2-4.51-9.256-8.005-.631-.436-2.961-1.515.947-.883 1.968-1.572.907-.614 1.704-1.601.787-.976 1.9-1.767.034-.03.051.011.035.08.104.103.092.029.155-.034l12.699-12.292q.2-.195.218-.47.034-.453.401-.758 6.863-5.612 12.986-12.136.063-.063.086-.155.029-.132.12-.235l2.956-3.288q.206-.23.051-.5l-.264-.459q-.143-.246.058-.447.465-.453.826-.913.258-.338.918-.82.528-.39.718-1.016.08-.275.298-.459 1.062-.89 1.716-1.91.654-1.022 1.446-1.745.82-.752 1.365-1.905.127-.258.368-.408 1.452-.878 1.21-2.404-.292-1.842-.292-1.945.011-.999.086-1.98z"/><path fill="#3f69ea" stroke="null" d="M211.325 16.61q2.427 9.64 3.288 20.537.728 9.267.786 15.418-.247 2.588-.31 4.907-.086 2.96-.241 4.894c-.224 2.755-.281 5.756-.545 8.258q-.867 8.171-2.692 16.228l-.286-1.883q-.052-.344-.305-.103-.453.43-.59 1.09-.058.282-.345.27-2.255-.057-2.037-1.394 1.802-8.32 2.64-16.785 1.25-11.746.642-24.032l-.786-13.588-1.486-10.633q2.048-.557 2.267-3.185z"/><path fill="#561bac" stroke="null" d="m210.544 30.427.786 13.588q-.706 1.004-1.452 1.114-.28.04-.373.31-.051.143-.051.298.006.28-.16.51-3.868 5.52-7.971 10.869-.62.815-1.739 2.025-1.188 1.286-1.664 2.106-1.618 2.755-2.445 3.587-1.956 1.974-2.725 3.093-3.116 4.527-6.657 8.728-.183.218-.258.493-.097.362-.316.677-1.715 2.41-4.097 3.736-2.065-5.6-5.686-10.111 1.635-.396 2.232-1.681.029-.063.092-.092.074-.035.166-.052.08-.005.132-.069 5.027-5.87 10.025-12.153 1.515-1.905 3.162-3.673 1.64-1.767 3.27-3.552.138-.149.018-.31-.058-.086-.052-.189.012-.115.11-.184.7-.51.848-1.36.052-.28.31-.413.218-.103.454-.097.413.011.614-.345.177-.304.516-.568.396-.298.717-.746.752-1.056 1.71-1.968.167-.16.368-.218.12-.04.235-.069.23-.051.39-.23l1.848-2.06q.126-.143.12-.332-.006-.086-.017-.167-.017-.074.029-.126 1.934-2.295 3.684-4.723 1.836-2.542 3.827-5.646z"/><path fill="#c6fbff" stroke="null" d="M87.98 45.995q-.717.81-1.905 1.285c-2.146.861-2.427 2.25-2.99 4.316a.212.212 0 0 1-.401.028c-.46-.998-.77-2.272-1.498-3.11q-1.446-1.67-4.034-2.427 1.756-1.211 3.248-2.089 1.83-1.073 1.928-2.427.126-1.83.671-.075.895 2.904 4.981 4.499z"/><path fill="#4c1791" stroke="null" d="M211.33 44.015q.609 12.286-.642 24.032-.333.224-.609.729-.132.247-.384.373-.763.384-1.205 1.153-1.83 3.174-4.109 6.003-.373.464-.769.648-.258.126-.43.356-1.745 2.307-3.036 4.602-.35.62-.86 1.354-.46.66-.787 1.446-.55 1.337-1.096 2.043-.843 1.096-1.595 2.198-.195.287-.648.729-.373.355-.614.791-.367.66-.792 1.125-.43.47-.867 1.062-1.486 2.02-4.229 5.055-.19.213-.27.482-.057.172-.154.322-.15.235-.425.23-.35-.012-.51.263c-.31.528-.724.97-1.034 1.498q-.338.568-.872 1.044-.952.832-1.738 1.865-.173.23-.46.287-1.222.252-1.176-.253 2.961-11.086-.597-21.891 2.382-1.326 4.097-3.736.219-.315.316-.677.075-.275.258-.493 3.54-4.2 6.657-8.728.769-1.12 2.725-3.093.827-.832 2.445-3.587.476-.82 1.664-2.106 1.119-1.21 1.739-2.025 4.103-5.348 7.97-10.869.167-.23.16-.51 0-.155.052-.299.092-.27.373-.31.746-.109 1.452-1.113z"/><path fill="#2d1361" stroke="null" d="M162.968 61.316q2.33 1.079 2.96 1.515 5.056 3.495 9.257 8.005-.81-.16-1.062.671-.074.259-.344.264l-1.836.03q-.264.005-.299.263-.023.184.023.39c-10.048-11.195-24.6-13.158-38.12-7.42q-3.855 1.642-6.89 4.31c-3.255 2.863-6.267 6.1-8.046 10.002-1.234 2.72-2.651 5.13-3.093 8.154-.941 6.444-.453 13.755 2.64 19.602l-.614.384q-.224.144-.31.39-.11.322-.408.529-.315.218-.487-.12-.12-.236-.333-.426a.207.2 45.6 0 0-.264-.005l-.132.109q-.23.19-.08.447.229.396-.144 1.44l-1.13-2.289q-3.61-8.59-2.474-18.368l.551-3.288q1.555-6.175 4.04-9.945c6.387-9.697 16.922-16.492 28.53-17.576q9.572-1.222 18.065 2.932z"/><path fill="#fcfdfe" stroke="null" d="M63.896 80.408q-3.592 2.38-4.969 6.725-.694 2.18-.878 3.368-.367 2.341-.786.012c-.66-3.696-1.951-6.932-4.97-9.595q-1.836-1.308-3.138-1.893-1.44-.649-5.446-1.756-.488-.132-.006-.276c4.717-1.417 10.61-3.397 12.252-8.63q.78-2.473 1.474-4.97.08-.298.138-.332.379-.241.43.206c.46 4.057 1.9 7.953 5.194 10.496 2.111 1.63 5.388 2.444 8.08 3.213q1.107.316-.024.534-3.707.717-7.35 2.897z"/><path fill="#221075" stroke="null" d="M210.688 68.047q-.838 8.464-2.64 16.785-.964 4.12-2.76 10.317-5.113 17.582-15.528 32.226-9.285 13.05-20.497 22.758-6.243 5.36-8.103 6.766-9.055 6.846-18.815 12.578-.259.15-.328.442-.183.752.241 1.435.11.172.287.27.19.103.218.315.04.275.224.482.666.757 1.733.712-1.566.98-3.19 1.75-7.414 3.517-14.857 6.977-3.012 1.4-5.474 3.277a.953.953 0 0 1-1.108.034l-6.541-4.366a.735.735 0 0 1-.19-1.045c2.078-2.892 4.304-5.784 5.876-8.865q4.356-8.516 6.129-16.963 1.142-5.422 1.188-12.808.424 3.11-.086 6.215-.075.476.27.815.28.27.212.597-.098.482.344.27c.9-.431 1.842-.816 2.462-1.642q2.645-3.546 5.784-6.645.063-.063.155-.069.2-.011.338-.155l7.92-8.326q.355-.373.82-.58.637-.28 1.176-.94a.264.264 0 0 1 .31-.075q.235.103.155.264-.195.361.143.126.287-.195.528-.47.138-.155-.034-.27-.138-.092-.166-.235-.035-.219-.259-.247-.23-.035-.212-.213 3.213-.206 6.461-.447c1.326-.098 2.365-.551 3.65-.838q1.572-.35 2.668-.826 2.123-.93 4.315-1.911 2.313-1.033 4.029-2.399 6.742-5.376 10.38-10.725 2.232-3.282 4.103-8.946-.046.505 1.176.253.287-.057.46-.287.786-1.033 1.738-1.865.534-.476.872-1.044c.31-.528.723-.97 1.033-1.498q.161-.275.511-.264.275.006.425-.23.097-.149.155-.32.08-.27.27-.483 2.742-3.035 4.228-5.055.437-.591.867-1.062.425-.465.792-1.125.24-.436.614-.791.453-.442.648-.73.752-1.1 1.595-2.197.546-.706 1.096-2.043.328-.786.787-1.446.51-.734.86-1.354 1.291-2.295 3.036-4.602.172-.23.43-.356.396-.184.77-.648 2.277-2.83 4.108-6.003.442-.769 1.205-1.153.252-.126.384-.373.276-.505.609-.729z"/><path fill="#1e0d43" stroke="null" d="m175.185 70.836.55.614q3.622 4.51 5.687 10.11 3.558 10.806.597 21.892-1.87 5.664-4.103 8.946-3.638 5.349-10.38 10.725-1.716 1.366-4.029 2.399-2.192.981-4.315 1.91-1.096.477-2.668.827c-1.286.287-2.324.74-3.65.838q-3.248.24-6.461.447-9.33-.12-17.169-4.911-8.86-5.601-13.858-14.782.373-1.045.144-1.44-.15-.259.08-.448l.132-.11a.207.2 45.6 0 1 .264.006q.212.19.333.425.172.339.487.12.299-.206.408-.527.086-.247.31-.39l.614-.385c4.332 8.98 12.463 16.039 22.373 17.823q17.026 3.076 29.3-8.395c8.074-7.552 11.304-19.384 8.952-30.005q-1.71-7.701-7.116-14.07-.046-.207-.023-.391.035-.258.299-.264l1.836-.029q.27-.005.344-.264.253-.832 1.062-.671z"/><path fill="#6033e1" stroke="null" d="M211.611 86.852q-2.03 8.613-3.529 13.553-2.714 8.946-6.168 15.93-2.783 5.618-7.489 13.17-9.233 13.96-21.794 25.03-.04-.695-.235-.649-.425.086-.5-.333-2.013-1.268-2.633-3.42 11.212-9.709 20.497-22.758 10.415-14.644 15.528-32.226 1.796-6.197 2.76-10.317-.218 1.337 2.037 1.394.287.012.344-.27.138-.66.591-1.09.253-.24.305.103z"/><path fill="#9e1cb2" stroke="null" d="m112.333 85.905-.55 3.288-.649 3.357q-.052.27-.264.447-.425.362-.637.861-.109.258-.333.43-2.014 1.561-3.087 3.415-.327.568-.815.895-.482.321-.872.746-.597.66-1.188 1.325-.063.07-.006.138.046.063-.023.138-2.215 2.41-4.493 4.757-.82.85-1.71 1.63-.063.051-.132.017-.074-.04-.12-.115-.103-.184-.247-.034-1.779 1.842-3.936 2.943a.31.304-30.3 0 1-.396-.097q-.12-.184-.322-.08-2.1 1.061-4 1.52a.654.648 53.4 0 1-.487-.075q-.287-.16-.361-.459-.115-.441-.287-.023-.161.408-.436.396l2.37-10.271q.499 1.079.212 2.576a.597.597 0 0 0 .051.385q.11.224.064.488-.058-.316.223-.448.528-.247.723-.792.11-.281.408-.321.89-.126 1.624-.649.166-.12.287.046.051.07.046.16 0 .053.04.024l1.87-1.418q.213-.16.236-.424.023-.31.338-.419.213-.075.379-.224.625-.54 1.216-1.113.161-.155.39-.16h.15q.092 0 .16-.052l3.26-2.565q.212-.167.27-.425.074-.35.413-.31.264.029.436-.172.327-.379.797-.671.5-.316.775-.643 2.37-2.818 5.262-4.86.442-.316-.097-.362-.092-.006-.15-.092-.097-.143.046-.24z"/><path fill="#761caf" stroke="null" d="M111.782 89.193q-1.136 9.778 2.474 18.368.568 1.722.516 3.34-.034 1.044-.534 1.819-.791 1.21-1.698 2.123-.16.16-.396.075-.27-.098-.46.114l-1.795 2.003q-.075.086.04.075.098-.018.166.005.236.075.08.27-2.794 3.57-6.265 6.479-.052.045-.052.12.006.092.017.166.029.213-.109.373-3.925 4.585-8.108 8.924-.517.533-1.343 1.182-.85.66-1.343 1.21-2.553 2.87-5.296 5.119a.97.97 0 0 1-1.567-.557c-.074-.361 0-.826-.051-1.222q-.511-4.022-.063-8.068.183-1.635-1.297-4.057.648-7.856 2.284-15.729.275.012.436-.396.172-.418.287.023.074.299.361.46a.654.648 53.4 0 0 .488.074q1.9-.459 4-1.52.2-.104.32.08a.31.304-30.3 0 0 .397.097q2.157-1.101 3.936-2.943.144-.15.247.034.046.075.12.115.07.034.132-.017.89-.78 1.71-1.63 2.279-2.347 4.494-4.757.068-.075.022-.138-.057-.069.006-.138.591-.665 1.188-1.325.39-.425.872-.746.488-.327.815-.895 1.073-1.854 3.087-3.415.224-.172.333-.43.212-.5.637-.86.212-.179.264-.448z"/><path fill="#c6fbff" stroke="null" d="M23.505 96.612q-3.478 1.71-3.943 4.998-.189 1.349-.608.058c-.924-2.852-1.785-5.113-5.394-5.555l-.379-.23q-.723-.441.098-.653c2.995-.78 4.9-1.877 5.698-5.056q.184-.74.436-.017c.488 1.377 1.067 2.743 2.295 3.655q1.32.981 2.979 1.722a.304.304 0 0 1 0 .556z"/><path fill="#1e0d43" stroke="null" d="M85.203 102.534q-.815 2.703-1.636 7.345-3.104 17.623-2.657 36.295.155 6.318.97 11.672.19 1.21.884 1.847.775.706 1.848 1.114c.717.815 1.405 1.59 2.34 2.215q2.388 1.595 4.695 3.167.482.327.763-.19 1.555-2.891 3.454-5.686 8.051-11.855 19.82-20.302 1.55-1.113 2.772-2.008c2.163-1.297 4.585-3.036 7.03-3.323a.39.39 0 0 1 .436.35l.63 6.094q-.045 7.386-1.187 12.808-1.773 8.447-6.129 16.963c-1.572 3.081-3.798 5.973-5.876 8.865a.735.735 0 0 0 .19 1.045l6.541 4.366a.953.953 0 0 0 1.108-.034q2.462-1.876 5.474-3.277 7.443-3.46 14.857-6.977 1.624-.77 3.19-1.75 13.99-7.236 26.155-17.405.213-.172.402-.183.247-.018.453.114 3.019 5.607 4.941 11.856 2.6 7.85 2.433 16.245-.298.16-.534-.023-.074-.063-.086-.155-.023-.132-.155-.15-1.233-.183-2.404.121a1.09 1.085 77 0 1-1.337-.838l-.252-1.233c-.505-5.882-2.078-10.209-5.17-14.576a.39.39 0 0 0-.626-.011c-.746.976-1.423 1.767-2.45 2.496q-5.153 3.661-9.055 5.584c-3.472 1.71-6.846 3.563-10.536 4.866q-1.94.688-3.799 1.532l-1.779.321a.298.298 0 0 0-.223.396c1.29 3.397 2.794 6.95 3.489 10.346q1.497 7.294.843 13.996-.97 9.835-6.783 18.776-.562-.121-.78-.597 3.282-8.154 3.736-16.9.751-7.465-.517-12.618-1.509-6.129-3.982-11.936-.327-.769-1.142-.556c-2.152.58-4.166 1.383-6.255 2.071-1.934.637-2.433 1.808-2.794 3.868-.81 4.63-1.01 8.877-5.681 11.35q-2.267 1.2-4.367.333-.775-.321-2.91-1.618l-10.736-7.437a.407.407 0 0 0-.522.046q-8.745 8.848-19.31 16.658-3.632 0-3.465-5.032.132-3.96 1.193-8.877l4.143-13.262a.752.746-63.5 0 0-.275-.837l-9.916-7.099q-1.48-.855-2.192-1.434c-3.426-2.8-3.873-7.362-.528-10.335q2.565-2.272 5.314-3.62a.643.643 0 0 0 .367-.615l-.27-5.101a.62.62 0 0 0-.573-.585c-11.087-.901-22.42 1.394-32.537 6.478-3.793 1.905-6.765 3.357-9.76 5.394q-.127.086-.247.098-.235.023-.258-.104.815-1.205.7-2.152.878.815 2.496-.855 1.096-1.13 1.87-1.675 2.135-1.515 4.046-3.145c5.32-3.328 10.145-5.899 15.855-7.414q7.833-2.071 16.452-1.32a.941.941 0 0 0 1.021-.9l.677-18.713 1.435-11.425 1.21-5.95 1.074-4.195.528-2.772q.476-.809 1.52-.487 1.492.459 2.336.596zm-2.146 99.244q3.718-2.456 6.048-6.765.396.091.751-.132.241-.144.247-.43.012-.328.293-.408.218-.069.287-.287.097-.298.333-.54.2-.206.487-.229 1.762-.155 3.053-1.142 1.291-.987 2.117-1.498.219-.137.362-.35 1.257-1.91 2.886-1.727.482.058.798-.315 8.43-10.031 11.23-14.082 1.95-2.823 4.418-7.535 3.294-6.3 4.287-12.825.424-2.788.883-5.572c.316-1.905.19-3.534-.04-5.382q.236-.895-.35-1.125.236-.321.287-.602a.264.264 0 0 0-.373-.287q-1.411.654-2.995 1.773-10.41 7.385-17.99 18.007-3.477 4.86-5.618 8.63-5.566 9.784-9.508 21.249-.952 2.76-3.357 12.515-.183.74-.092 1.463.075.569.333.052zm-5.349-38.263c-1.836-.993-5.36 2.433-3.144 4.178 3.753 2.955 7.85 5.572 11.683 8.217q.344.24.54-.132l2.082-3.994a.608.597 30.9 0 0-.2-.78c-3.49-2.353-7.127-5.423-10.96-7.489zm42.221 29.97a1.532 1.532 0 0 0-.41-2.129l-9.132-6.183a1.532 1.532 0 0 0-2.128.41l-1.203 1.777a1.532 1.532 0 0 0 .41 2.128l9.132 6.183a1.532 1.532 0 0 0 2.128-.41z"/><path fill="#fcfdfe" stroke="null" d="m81.347 102.425-.528 2.772q-12.7 1.107-23.246 8.2c-10.645 7.156-17.347 19.36-20.136 31.612q-2.031 7.448-2.754 15.78.115.947-.7 2.152l-.379.115q-.344.11-.356-.258-.143-4.952.12-9.876.793-14.477 7.88-26.958 1.25-1.963 2.524-3.845c8.608-12.704 21.95-19.034 37.035-20.101q.218-.012.356.063.264.138.184.344z"/><path fill="#c722ad" stroke="null" d="m80.819 105.197-1.073 4.195-4.872 2.33q-.253.12-.454.315-.9.89-2.163 1.25-.843.248-1.664.563-.723.276-1.354 1.045-1.062 1.296-2.657 2.106-.253.126-.436.344-.42.516-1.068.666-.361.08-.636.32-1.504 1.332-2.87 2.618-.43.401-1.033.728-.459.247-.837.689-.73.832-1.108 1.079-1.463.935-2.61 1.945-.735.643-1.4 1.062-.97.614-1.424 1.01-.677.596-1.383 1.153-.252.195-.338.5-.161.556-.712.636a.86.838-73 0 0-.51.281q-2.428 2.772-6.014 5.739-.322.27-1.412 1.451-.04.046-.034.104.011.103.051.183.08.155-.04.276l-.712.711q-.189.19-.258.442-.097.333-.447.448-.259.08-.35.338-.339.999-1.05 1.796-.196.213-.276.488-.591 1.9-2.238 3.001c2.789-12.251 9.491-24.456 20.136-31.612q10.547-7.093 23.246-8.2z"/><path fill="#561bac" stroke="null" d="m114.256 107.561 1.13 2.29q4.998 9.18 13.858 14.781l-10.788 13.37q-1.222.896-2.772 2.01-11.769 8.446-19.82 20.301-1.899 2.795-3.454 5.687-.281.516-.763.19-2.307-1.573-4.694-3.168c-.936-.626-1.624-1.4-2.341-2.215q-1.498-16.82.086-33.753 1.48 2.422 1.297 4.057-.448 4.046.063 8.068c.051.396-.023.86.051 1.222a.97.97 0 0 0 1.567.557q2.743-2.25 5.296-5.119.494-.55 1.343-1.21.826-.649 1.343-1.182 4.183-4.339 8.108-8.924.138-.16.109-.373-.011-.074-.017-.166 0-.075.051-.12 3.472-2.91 6.267-6.479.155-.195-.08-.27-.07-.023-.167-.005-.115.011-.04-.075l1.796-2.003q.19-.212.459-.114.235.086.396-.075.906-.912 1.698-2.123.5-.775.534-1.82.052-1.617-.516-3.339z"/><path fill="#9e1cb2" stroke="null" d="m79.746 109.392-1.211 5.95q-.482.981-1.423 1.222-.276.07-.47.27-.575.58-1.7 1.188-1.262.677-2.387 1.928-1.32 1.463-2.163 2.106-1.59 1.21-3.15 2.456-.126.098-.126.258 0 .138-.184.299-4.39 3.862-10.461 10.197-.195.2-.47.177-.259-.017-.402.201-.184.281-.218.316-3.047 2.978-4.85 5.055-.866.999-1.996 2.8-.034.058-.006.121.04.069.08.12.035.04.012.092-.528 1.033-1.182 1.894-.643.85-.97 1.865-.373 1.142-1.314 2.307-.178.224-.155.505.017.224-.126.413-.08.115-.2.034-.116-.08-.225.052-1.59 1.957-1.354 3.896-1.91 1.63-4.045 3.145-.775.545-1.871 1.675-1.618 1.67-2.496.855.723-8.332 2.754-15.78 1.647-1.102 2.238-3.001.08-.275.275-.488.712-.797 1.05-1.796.092-.258.35-.338.35-.115.448-.448.07-.252.258-.442l.712-.711q.12-.12.04-.276-.04-.08-.051-.183-.006-.058.034-.104 1.09-1.182 1.412-1.451 3.586-2.967 6.013-5.739a.86.838-73 0 1 .511-.281q.55-.08.712-.637.086-.304.338-.5.706-.556 1.383-1.153.453-.395 1.423-1.01.666-.418 1.4-1.061 1.148-1.01 2.611-1.945.379-.247 1.108-1.08.378-.441.838-.688.602-.327 1.032-.728 1.366-1.286 2.87-2.617.275-.241.636-.321.649-.15 1.068-.666.183-.218.436-.344 1.595-.81 2.657-2.106.631-.77 1.354-1.045.82-.315 1.664-.562 1.263-.362 2.163-1.251.201-.195.454-.316l4.872-2.33z"/><path fill="#c6fbff" stroke="null" d="m222.41 116.364 4.626 1.75q.5.195-.006.361c-4.487 1.51-7.511 3.369-8.154 8.453q-.023.16-.15.252-.074.052-.16.058-.206.011-.264-.195-.436-1.573-1.01-3.093-1.865-4.9-7.54-5.16l-.19-.148q-.263-.207.053-.339 2.037-.826 4.01-1.761c2.812-1.32 3.788-3.88 4.7-6.651q.27-.815.47.017c.615 2.582 1.493 4.774 3.616 6.456z"/><path fill="#761caf" stroke="null" d="M78.535 115.342 77.1 126.767q-.562.637-1.222.987-.258.138-.373.402-.476 1.107-1.21 1.876-.77.804-1.412 1.75-1.728 2.548-3.558 4.396-.643.648-1.096 1.463-.448.804-1.326 1.389-.206.143-.109-.092.052-.12.092-.24.098-.31-.172-.133-.677.46-1.004 1.067-.523.976-.735 1.217-2.92 3.426-6.025 6.851c-5.71 1.515-10.536 4.086-15.855 7.414q-.235-1.94 1.354-3.896.11-.132.224-.052.12.08.2-.034.144-.19.127-.413-.023-.281.155-.505.941-1.165 1.314-2.307.327-1.016.97-1.865.654-.86 1.182-1.894.023-.051-.011-.091-.04-.052-.08-.12-.03-.064.005-.121 1.13-1.802 1.997-2.8 1.802-2.078 4.849-5.056.034-.035.218-.316.143-.218.401-.2.276.022.471-.178 6.071-6.335 10.46-10.197.185-.161.185-.299 0-.16.126-.258 1.56-1.245 3.15-2.456.844-.643 2.163-2.106 1.125-1.25 2.388-1.928 1.124-.608 1.698-1.188.195-.2.47-.27.942-.24 1.424-1.222z"/><path fill="#4c1791" stroke="null" d="M129.244 124.633q7.839 4.791 17.169 4.911-.017.178.212.213.224.028.259.247.028.143.166.235.172.115.034.27-.24.275-.528.47-.338.235-.143-.126.08-.16-.155-.264a.264.264 0 0 0-.31.074q-.54.66-1.176.942-.465.206-.82.58l-7.92 8.325q-.137.144-.338.155-.092.006-.155.07-3.139 3.098-5.784 6.644c-.62.826-1.561 1.21-2.462 1.641q-.442.213-.344-.27.069-.327-.213-.596-.344-.339-.27-.815.511-3.104.087-6.215l-.631-6.094a.39.39 0 0 0-.437-.35c-2.444.287-4.866 2.026-7.029 3.323zM77.1 126.767l-.677 18.713a.941.941 0 0 1-1.021.9q-8.62-.751-16.452 1.32 3.104-3.425 6.025-6.851.212-.241.735-1.217.327-.608 1.004-1.067.27-.178.172.132-.04.12-.092.241-.097.235.11.092.877-.585 1.325-1.389.453-.815 1.096-1.463 1.83-1.848 3.558-4.396.642-.946 1.411-1.75.735-.769 1.21-1.876.116-.264.374-.402.66-.35 1.222-.987z"/><path fill="#fcfdfe" stroke="null" d="M121.147 141.434c-1.027 1.102-1.824 2.416-2.875 3.415q-4.791 4.55-9.175 10.036-7.288 9.135-12.527 18.443c-3.437 6.117-6.811 12.28-9.571 18.798q-1.997 4.717-3.942 9.652l-1.223 2.456q-.258.517-.333-.052-.091-.723.092-1.463 2.405-9.755 3.357-12.515 3.942-11.465 9.508-21.249 2.14-3.77 5.618-8.63 7.58-10.622 17.99-18.007 1.584-1.119 2.995-1.773a.264.264 0 0 1 .373.287q-.051.28-.287.602z"/><path fill="#c6fbff" stroke="null" d="M19.126 147.454q-1.056-1.997-2.57-2.445a.23.23 0 0 1-.064-.413q1.802-1.234 2.996-3.081a.224.224 0 0 1 .384.011q.976 1.687 2.594 2.995.218.184-.012.35-.413.305-.814.528c-.81.448-1.314 1.44-1.825 2.112q-.39.517-.689-.057z"/><path fill="#9e1cb2" stroke="null" d="M121.147 141.434q.586.23.35 1.125.15 1.09-.407 1.572-.448.385-.476.42-.643.785-1.073 1.698c-2.21 4.676-4.998 9.037-7.483 13.565q-2.554 4.648-5.067 8.665c-2.456 3.93-4.711 7.798-7.454 11.706-2.313 3.294-4.562 7.047-6.748 9.996q-1.82 2.456-3.684 4.832-2.33 4.31-6.048 6.765 1.945-4.935 3.942-9.652c2.76-6.518 6.134-12.681 9.571-18.798q5.24-9.308 12.527-18.443 4.384-5.486 9.175-10.036c1.05-.999 1.848-2.313 2.875-3.415z"/><path fill="#2d1361" stroke="null" d="M121.497 142.559c.23 1.848.356 3.477.04 5.382q-.459 2.784-.883 5.572-.993 6.525-4.287 12.825-2.467 4.712-4.418 7.535-2.8 4.051-11.23 14.082-.316.373-.798.315-1.63-.183-2.886 1.727-.143.213-.361.35-.827.511-2.118 1.498t-3.053 1.142q-.287.023-.487.23-.236.24-.333.539-.07.218-.287.287-.281.08-.293.407-.006.287-.247.43-.355.224-.751.133 1.865-2.376 3.684-4.832c2.186-2.95 4.435-6.702 6.748-9.996 2.743-3.908 4.998-7.775 7.454-11.706q2.513-4.017 5.067-8.665c2.485-4.528 5.273-8.889 7.483-13.565q.43-.913 1.073-1.699.028-.034.476-.419.557-.482.407-1.572z"/><path fill="#4c1791" stroke="null" d="M169.263 150.133q.62 2.152 2.634 3.42.074.42.499.333.195-.046.235.649-.58.023-.9 1.124-.207-.132-.454-.114-.19.011-.402.183-12.165 10.169-26.155 17.405-1.067.045-1.733-.712-.183-.207-.224-.482-.028-.212-.218-.316-.177-.097-.287-.27-.424-.682-.24-1.434.068-.293.327-.442 9.76-5.732 18.815-12.578 1.86-1.406 8.103-6.766z"/><path fill="#9e1cb2" stroke="null" d="M74.564 167.693c-2.215-1.745 1.308-5.17 3.144-4.178 3.834 2.066 7.472 5.136 10.96 7.489a.608.597 30.9 0 1 .201.78l-2.083 3.994q-.195.373-.539.132c-3.833-2.645-7.93-5.262-11.683-8.217z"/><path fill="#c6fbff" stroke="null" d="M216.719 169.018q-2.508 1.372-3.128 2.887-.379.935-.683-.03-.642-2.065-3.11-2.696-.43-.11-.097-.396c1.285-1.125 2.84-1.963 3.374-3.713q.246-.82.574-.028.906 2.215 3.075 3.517a.27.264 46.2 0 1-.005.46z"/><path fill="#4c1791" stroke="null" d="M174.336 181.482q.011 2.364.017 4.717.017 4.66-1.78 9.003-2.587 6.26-6.512 10.817-4.625 5.365-6.662 6.788-2.623 1.836-5.056 3.546-2.375 1.67-5.21 3.323-4.711 2.737-6.364 4.04-1.348 1.055-.43 2.266l-5.738 1.974q-.31.11-.207-.2l1.073-3.145q.218.476.78.597-.516.826-.55 1.537-.018.31.218.104 3.856-3.323 6.008-7.965c2.461-5.32 4.085-10.92 4.114-16.802q.023-4.596-.958-9.336-1.24-5.968-4.379-11.373 1.86-.844 3.8-1.532c3.689-1.303 7.063-3.156 10.535-4.866q3.902-1.923 9.055-5.584c1.027-.729 1.704-1.52 2.45-2.496a.39.39 0 0 1 .625.011c3.093 4.367 4.666 8.694 5.17 14.576z"/><path fill="#c6fbff" d="m74.667 172.765 9.916 7.099a.752.746-63.5 0 1 .275.837l-4.143 13.262-.378.292q-.23.178-.523.138-.516-.069-1.015.103a1.435 1.423-51.3 0 1-.551.063q-.746-.074-1.492-.103c-.901-.029-1.779.304-2.737.39q-.528.052-1.045.172-3.276.78-7.362 1.83-1.021.265-2.123.741-.144.057-.218-.08-.052-.098.011-.19.11-.166-.08-.109-2.358.718-3.598 2.663l-.809 1.274q-.958 1.331-1.934 2.662a.981.947 6.7 0 1-.436.333q-1.05.402-1.87 1.59 2.094-5.825 4.911-11.224 1.108-2.112 1.928-3.564 5.664-9.858 13.273-18.179"/><path fill="#e931aa" stroke="null" d="M142.7 181.373q3.14 5.405 4.379 11.373.98 4.74.958 9.336c-.029 5.882-1.653 11.483-4.114 16.802q-2.152 4.642-6.008 7.965-.236.206-.218-.104.034-.711.55-1.537 5.813-8.94 6.783-18.776.654-6.702-.843-13.996c-.695-3.397-2.198-6.949-3.49-10.346a.298.298 0 0 1 .224-.396z"/><path fill="#221075" stroke="null" d="m174.336 181.482.252 1.233a1.09 1.085 77 0 0 1.337.838q1.17-.304 2.404-.12.132.017.155.149.012.092.086.155.236.184.534.023l-.178 2.783q-1.193 12.32-9.29 21.232-2.077 2.427-3.604 3.775-10.512 9.308-23.693 14.432-.918-1.21.43-2.266 1.653-1.303 6.364-4.04 2.835-1.653 5.21-3.323 2.433-1.71 5.056-3.546 2.037-1.423 6.662-6.788 3.925-4.557 6.513-10.817 1.796-4.344 1.779-9.003-.006-2.353-.018-4.717z"/><rect width="24.56" height="9.08" x="-484.028" y="197.324" fill="#4c1791" stroke="null" rx="2.67" transform="rotate(34.1 -200.203 779.496)scale(.57383)"/><path fill="#c6fbff" stroke="null" d="M113.556 198.605q-.528 1.423-1.228 2.565-2.319 3.781-4.953 7.43-.114.07-.235.3-.069-.064-.092-.127-.028-.097-.114-.04-.196.132-.396.034-.907-.419-2.984-1.532-.603-.321-1.28-.482-.666-.155-1.337-.321-1.056-.264-2.003-.224-1.142.052-2.249 0c-.671-.034-1.24.132-1.888.241q-.281.052-.545-.069-.654-.292-1.182.132-.373.304-.941.488-1.389.459-2.76.671-.643.098-1.44.448-.7.31-1.458.436-.287.052-.545-.075-1.378-.637-2.938-.608 10.564-7.81 19.309-16.658a.407.407 0 0 1 .522-.046z"/><path fill="#c6fbff" stroke="null" d="M80.715 193.56q-1.061 4.919-1.193 8.878-.167 5.033 3.466 5.033 1.56-.03 2.938.608.258.126.545.074.757-.126 1.457-.436.798-.35 1.44-.447 1.372-.213 2.76-.672.569-.183.942-.487.528-.425 1.182-.132.264.12.545.068c.649-.109 1.217-.275 1.888-.24q1.107.051 2.25 0 .946-.04 2.002.223.671.167 1.337.322.677.16 1.28.482 2.077 1.113 2.984 1.532.2.097.396-.035.086-.057.114.04.023.064.092.127-14.828 19.98-36.042 33.064-10.444 6.358-22.752 11.746-.764.333-.718-.494l1.165-21.208q1.148-9.859 3.483-19.137l2.278-7.139q.821-1.188 1.871-1.59a.981.947 6.7 0 0 .436-.332q.976-1.331 1.934-2.663l.81-1.274q1.239-1.945 3.597-2.662.19-.058.08.109-.063.092-.011.19.075.137.218.08 1.102-.477 2.123-.74 4.086-1.05 7.362-1.831.517-.12 1.045-.172c.958-.086 1.836-.42 2.737-.39q.746.028 1.492.103a1.435 1.423-51.3 0 0 .55-.063q.5-.173 1.016-.104.293.04.523-.137l.378-.293z"/><path fill="#9e1cb2" stroke="null" d="M215.129 284.957q.052 11.253.115 22.466c.011 2.53.292 4.596-2.095 5.41-2.106.718-3.695-.866-3.718-2.92q-.098-8.648-.017-24.394.62-.487 1.555-.344 1.01.155 1.492.098 1.308-.167 2.668-.316z"/><path fill="#3976ec" stroke="null" d="M80.91 317.713q-.068 11.545.006 23.08c.029 4.354-5.526 4.733-5.549 0q-.051-11.305.04-22.426.901-2.135 2.37-.976.201.161.42.029.303-.19.797-.052.832.23 1.916.345z"/><path fill="#e931aa" stroke="null" d="M165.688 330.819c-1.802.895-2.915 2.146-4.04 3.81a.298.298 0 0 1-.51-.034q-1.309-2.611-3.765-3.65-1.274-.534.006-1.062 2.835-1.17 3.563-3.569.31-1.033.77-.051 1.244 2.668 3.987 4.246a.178.172-43.4 0 1-.011.31z"/><circle cx="147.19" cy="93.254" r="32.172" fill="#fff" stroke="null"/><text xml:space="preserve" x="133.988" y="107.545" fill="#ff7f00" stroke="#000" stroke-width="0" font-family="Noto Sans JP" font-size="42" font-weight="bold">₿</text></svg>