<svg xmlns="http://www.w3.org/2000/svg" width="320" height="320" fill="none"><rect width="320" height="320" fill="#5AD769" rx="160"/><path fill="#fff" d="M181.785 81.614c3.794-5.11 9.846-8.154 16.293-8.197l25.048-.167c16.57-.11 26.162 18.239 16.395 31.363l-99.862 134.19c-3.825 5.139-9.931 8.182-16.419 8.182H98.525c-16.498 0-25.98-18.271-16.27-31.347zm-84.752.576c3.823-5.153 9.938-8.206 16.438-8.206h24.998c16.513 0 25.992 18.3 16.25 31.373l-25.806 34.63c-3.825 5.132-9.928 8.171-16.411 8.171H87.62c-16.492 0-25.976-18.261-16.276-31.338zm94.853 99.007c3.823-5.153 9.938-8.207 16.437-8.207h24.999c16.513.001 25.991 18.301 16.25 31.373l-25.806 34.63c-3.825 5.133-9.928 8.172-16.411 8.172h-24.882c-16.492 0-25.976-18.261-16.276-31.338z"/></svg>